<?xml version="1.0" encoding="UTF-8"?>
<svg version="1.1" xmlns="http://www.w3.org/2000/svg" width="512" height="512">
<path d="M0 0 C168.96 0 337.92 0 512 0 C512 168.96 512 337.92 512 512 C343.04 512 174.08 512 0 512 C0 343.04 0 174.08 0 0 Z " fill="#000000" transform="translate(0,0)"/>
<path d="M0 0 C23.43 0 46.86 0 71 0 C76.28 9.24 81.56 18.48 87 28 C89.02125 31.526875 91.0425 35.05375 93.125 38.6875 C98.11084283 47.40595071 103.0261964 56.16242041 107.8972168 64.94555664 C110.55947907 69.7279138 113.25272857 74.46935212 116.14453125 79.1171875 C116.61938965 79.88708008 117.09424805 80.65697266 117.58349609 81.45019531 C118.45382129 82.84811396 119.33972082 84.23651988 120.24462891 85.61230469 C123.13210446 90.26198064 123.18037768 92.73808347 122 98 C120.7965277 101.04203309 119.33949003 103.92837008 117.84375 106.8359375 C117.42258911 107.67355621 117.00142822 108.51117493 116.56750488 109.37417603 C115.22099769 112.04595164 113.8605968 114.71037705 112.5 117.375 C111.6163051 119.12585699 110.733485 120.87715581 109.8515625 122.62890625 C104.36844211 133.49081543 98.73409219 144.26870598 93 155 C89.43189026 151.58914949 87.1351359 148.00776838 84.8125 143.6875 C84.00817534 142.22694647 83.2021489 140.76732898 82.39453125 139.30859375 C81.99057129 138.57753418 81.58661133 137.84647461 81.17041016 137.09326172 C76.76513689 129.21449389 71.94998856 121.55665287 67.25 113.8515625 C65.83289247 111.52630859 64.41610195 109.20086603 63 106.875 C62.63592041 106.27715698 62.27184082 105.67931396 61.89672852 105.06335449 C56.33833885 95.92875468 50.88578555 86.73727567 45.5 77.5 C38.85862856 66.11057848 32.07433803 54.81605081 25.21032715 43.55963135 C20.06522515 35.12162806 14.97722068 26.65065502 9.90771484 18.16699219 C9.3348877 17.20954102 8.76206055 16.25208984 8.171875 15.265625 C7.63498047 14.36779297 7.09808594 13.46996094 6.54492188 12.54492188 C4.70307907 9.51088752 2.79612622 6.52212148 0.85644531 3.54980469 C0 2 0 2 0 0 Z " fill="#FDE7C1" transform="translate(122,144)"/>
<path d="M0 0 C23.76 0 47.52 0 72 0 C62.79980398 16.10034304 62.79980398 16.10034304 59.484375 21.6640625 C59.10668976 22.3000235 58.72900452 22.9359845 58.33987427 23.59121704 C57.14448946 25.60321835 55.94735723 27.61417198 54.75 29.625 C53.90376607 31.04782627 53.05757521 32.47067816 52.21142578 33.89355469 C44.5059255 46.84647457 36.78258825 59.78794389 28.94921875 72.6640625 C28.59258652 73.25033417 28.23595428 73.83660583 27.86851501 74.44064331 C24.78581552 79.50810985 24.78581552 79.50810985 23.46615601 81.6762085 C17.93664515 90.76366578 12.47891227 99.89035336 7.10961914 109.07373047 C1.58601953 118.49488743 1.58601953 118.49488743 -1 122 C-1.66 122 -2.32 122 -3 122 C-3.648479 120.69518677 -3.648479 120.69518677 -4.31005859 119.36401367 C-15.39755216 97.03453392 -15.39755216 97.03453392 -26.88671875 74.91015625 C-27.22106934 74.27609863 -27.55541992 73.64204102 -27.89990234 72.98876953 C-28.70766153 71.52849293 -29.56449867 70.09508864 -30.44775391 68.67919922 C-30.92519043 67.89689941 -31.40262695 67.11459961 -31.89453125 66.30859375 C-32.3428833 65.60404053 -32.79123535 64.8994873 -33.25317383 64.17358398 C-34 62 -34 62 -33.30444336 59.55029297 C-31.98488616 56.97045122 -30.65171662 54.41443638 -29.234375 51.88671875 C-28.68056152 50.89728271 -28.12674805 49.90784668 -27.55615234 48.88842773 C-26.96012207 47.83212158 -26.3640918 46.77581543 -25.75 45.6875 C-25.13463379 44.59187744 -24.51926758 43.49625488 -23.88525391 42.36743164 C-18.89382091 33.51115272 -13.7942086 24.72037687 -8.62011719 15.96948242 C-8.07258789 15.03982666 -7.52505859 14.1101709 -6.9609375 13.15234375 C-6.48446777 12.34788818 -6.00799805 11.54343262 -5.51708984 10.71459961 C-3.55730879 7.20787196 -1.79654561 3.59309121 0 0 Z " fill="#FDE6C0" transform="translate(319,144)"/>
<path d="M0 0 C4.08757926 4.54386717 6.48502227 9.676165 9.125 15.125 C10.09993866 17.10626863 11.07653295 19.08672333 12.0546875 21.06640625 C12.79090332 22.55744873 12.79090332 22.55744873 13.54199219 24.07861328 C15.71795778 28.43856042 17.97401467 32.75411747 20.25 37.0625 C20.65790771 37.83956299 21.06581543 38.61662598 21.48608398 39.41723633 C23.33972315 42.93265531 25.22385883 46.41966892 27.21484375 49.859375 C27.86582031 50.99890625 28.51679688 52.1384375 29.1875 53.3125 C29.75855469 54.27800781 30.32960938 55.24351562 30.91796875 56.23828125 C32.27869059 59.71131498 31.85948641 61.39176051 31 65 C29.65234375 67.82983398 29.65234375 67.82983398 27.9375 70.74609375 C27.31037109 71.8225415 26.68324219 72.89898926 26.03710938 74.00805664 C25.36486328 75.13977295 24.69261719 76.27148926 24 77.4375 C23.3046075 78.62253682 22.60995039 79.80800546 21.91601562 80.99389648 C19.95618959 84.33652511 17.97993488 87.66923859 16 91 C15.55527344 91.75055664 15.11054688 92.50111328 14.65234375 93.27441406 C12.55717844 96.80589914 10.43686837 100.32170345 8.30810547 103.83300781 C6.68813202 106.51663684 5.0803912 109.20745888 3.47265625 111.8984375 C-3.56685984 123.675115 -10.6583808 135.40887886 -18 147 C-21.37498285 145.87500572 -21.54488691 145.56407526 -23.171875 142.625 C-23.58171631 141.89885498 -23.99155762 141.17270996 -24.41381836 140.42456055 C-24.8547583 139.62445557 -25.29569824 138.82435059 -25.75 138 C-26.72321891 136.27618957 -27.69859891 134.55359801 -28.67578125 132.83203125 C-29.20381348 131.89955566 -29.7318457 130.96708008 -30.27587891 130.00634766 C-33.42114168 124.52195714 -36.68131992 119.10652102 -39.9375 113.6875 C-40.8951123 112.08745117 -40.8951123 112.08745117 -41.87207031 110.45507812 C-42.48018555 109.44251953 -43.08830078 108.42996094 -43.71484375 107.38671875 C-44.56731689 105.96625244 -44.56731689 105.96625244 -45.43701172 104.51708984 C-46.72266188 102.4466348 -48.06804278 100.48546509 -49.50390625 98.51953125 C-51 96 -51 96 -50.74169922 94.1418457 C-49.89495309 91.69665024 -48.8302383 89.50384202 -47.62890625 87.2109375 C-46.89909546 85.81307007 -46.89909546 85.81307007 -46.15454102 84.38696289 C-45.62916748 83.39301514 -45.10379395 82.39906738 -44.5625 81.375 C-44.01972412 80.34173584 -43.47694824 79.30847168 -42.91772461 78.24389648 C-39.3156148 71.41460003 -35.62720101 64.63910673 -31.8527832 57.90380859 C-28.4318511 51.79774463 -25.08056593 45.65579087 -21.75 39.5 C-21.2135083 38.50871094 -20.6770166 37.51742187 -20.12426758 36.49609375 C-17.10457376 30.9100387 -14.09579024 25.31820957 -11.09375 19.72265625 C-10.44566117 18.51561257 -9.79754942 17.30858119 -9.14941406 16.1015625 C-7.8992179 13.77326971 -6.65161082 11.44364844 -5.40527344 9.11328125 C-4.84356445 8.0665625 -4.28185547 7.01984375 -3.703125 5.94140625 C-3.20458008 5.01013916 -2.70603516 4.07887207 -2.19238281 3.11938477 C-1 1 -1 1 0 0 Z " fill="#FDE6C0" transform="translate(275,223)"/>
<path d="M0 0 C3.49049153 -0.59699501 6.5273621 -0.77737896 10 0 C12.93863867 2.71024301 14.5215985 6.02344354 16.3125 9.5625 C16.85463135 10.5539502 17.3967627 11.54540039 17.95532227 12.56689453 C19.09561392 14.65542871 20.22061203 16.7523773 21.33105469 18.85693359 C23.4252384 22.80083663 25.6231365 26.67976613 27.83447266 30.55883789 C28.90409176 32.43792049 29.96626972 34.32125812 31.02099609 36.20874023 C33.92355783 41.40110067 36.90578168 46.52856161 40 51.609375 C40.65685791 52.69814941 41.31371582 53.78692383 41.99047852 54.90869141 C43.264913 57.01394532 44.55396532 59.11043599 45.85913086 61.19677734 C46.71583374 62.61917725 46.71583374 62.61917725 47.58984375 64.0703125 C48.10409912 64.90320801 48.61835449 65.73610352 49.14819336 66.59423828 C50 69 50 69 49.20385742 71.68188477 C48.80658447 72.44686279 48.40931152 73.21184082 48 74 C47.71898437 74.66644531 47.43796875 75.33289063 47.1484375 76.01953125 C46.43229167 77.6796875 45.71614583 79.33984375 45 81 C44.73606445 80.45625732 44.47212891 79.91251465 44.20019531 79.35229492 C42.81494151 76.63729892 41.31579372 74.00595111 39.796875 71.36328125 C39.15339111 70.24131348 38.50990723 69.1193457 37.84692383 67.96337891 C37.50545319 67.36889954 37.16398254 66.77442017 36.81216431 66.16192627 C30.50093189 55.17289288 24.27172791 44.14213614 18.11181641 33.06738281 C13.52844101 24.86249345 8.7720935 16.76749796 3.90942383 8.72509766 C3.39532959 7.86835449 2.88123535 7.01161133 2.3515625 6.12890625 C1.89604004 5.37681885 1.44051758 4.62473145 0.97119141 3.84985352 C0 2 0 2 0 0 Z " fill="#775782" transform="translate(201,158)"/>
<path d="M0 0 C3.49647929 3.03028205 4.99576191 5.47243571 6 10 C5.08813477 12.67114258 5.08813477 12.67114258 3.44140625 15.39453125 C2.83514404 16.42006104 2.22888184 17.44559082 1.60424805 18.50219727 C0.93047119 19.59459717 0.25669434 20.68699707 -0.4375 21.8125 C-1.12839315 22.96495924 -1.8174122 24.11854388 -2.50463867 25.27319336 C-3.93466777 27.66777457 -5.37647871 30.05460493 -6.82910156 32.43554688 C-8.90355965 35.83574474 -10.95083907 39.25167648 -12.9921875 42.671875 C-15.49349461 46.85972708 -18.00368467 51.04197122 -20.5234375 55.21875 C-25.07748228 62.77620614 -29.54697707 70.38271136 -34 78 C-36.95929119 75.24479785 -39.03681826 72.53372712 -41 69 C-40.21302734 67.77216797 -40.21302734 67.77216797 -39.41015625 66.51953125 C-31.61995838 54.25583987 -24.32573216 41.70387927 -17.00860596 29.15519714 C-13.70409124 23.48846093 -10.37720496 17.83507392 -7.04296875 12.18579102 C-4.66056268 8.14303623 -2.32077457 4.07830498 0 0 Z " fill="#75557C" transform="translate(306,286)"/>
<path d="M0 0 C2.64 0 5.28 0 8 0 C2.69464421 10.28118638 -3.02186701 20.29285736 -8.89892578 30.2578125 C-12.73249658 36.76980886 -16.42370098 43.34315887 -20 50 C-22 49 -22 49 -23.55078125 46.21484375 C-24.59648796 42.15898821 -23.18382627 39.77456603 -21.23046875 36.19140625 C-19.90504526 33.9683636 -18.55606974 31.7592437 -17.1875 29.5625 C-16.48780612 28.40392061 -15.79046586 27.24391661 -15.09545898 26.08251953 C-13.71619227 23.78146536 -12.32674705 21.48781056 -10.93066406 19.19677734 C-8.38029903 14.97390434 -5.95573452 10.68826474 -3.5625 6.375 C-2.85566851 5.11186737 -2.14866208 3.84883259 -1.44140625 2.5859375 C-0.96574219 1.73257813 -0.49007813 0.87921875 0 0 Z " fill="#73517D" transform="translate(307,153)"/>
<path d="M0 0 C4.0037354 1.33457847 4.94033117 3.80687009 6.90625 7.30078125 C7.2722229 7.93356491 7.6381958 8.56634857 8.01525879 9.2183075 C9.18541165 11.24491207 10.34314887 13.27827799 11.5 15.3125 C12.65903208 17.33466669 13.82061529 19.35531908 14.98474121 21.3745575 C15.70834026 22.6313678 16.42863365 23.8900888 17.1451416 25.1509552 C18.56997741 27.63922867 20.00705237 30.0092745 21.74414062 32.29370117 C23 34 23 34 23 36 C20.03385644 36.33026388 17.87846777 36.56833384 15 36 C12.95420548 33.68877012 11.84258663 32.05951849 10.5 29.375 C9.75424713 27.99721127 9.00814497 26.61961155 8.26171875 25.2421875 C7.70750244 24.18402832 7.70750244 24.18402832 7.14208984 23.10449219 C6.03032301 21.05587523 4.83551248 19.09729137 3.58203125 17.1328125 C3.20046875 16.52131348 2.81890625 15.90981445 2.42578125 15.27978516 C1.36848721 13.58950586 0.30359239 11.90398796 -0.76171875 10.21875 C-2.34499315 6.10323547 -1.57188323 4.02890458 0 0 Z " fill="#764B73" transform="translate(223,319)"/>
<path d="M0 0 C3.09592835 3.5087188 4.74194623 6.49197399 6 11 C5.01 11.495 5.01 11.495 4 12 C2.35 8.37 0.7 4.74 -1 1 C-0.67 0.67 -0.34 0.34 0 0 Z " fill="#E9DDB8" transform="translate(311,252)"/>
<path d="M0 0 C0.66 0.33 1.32 0.66 2 1 C0.35 3.64 -1.3 6.28 -3 9 C-3.33 8.01 -3.66 7.02 -4 6 C-2.0625 2.8125 -2.0625 2.8125 0 0 Z " fill="#E5D7B7" transform="translate(332,239)"/>
<path d="M0 0 C0.33 0.99 0.66 1.98 1 3 C-0.4375 5.6875 -0.4375 5.6875 -2 8 C-2.99 7.67 -3.98 7.34 -5 7 C-3.35 4.69 -1.7 2.38 0 0 Z " fill="#F0E1BF" transform="translate(369,177)"/>
</svg>
